<mxfile host="app.diagrams.net" modified="2021-01-09T15:51:58.283Z" agent="5.0 (Windows NT 10.0; Win64; x64) AppleWebKit/537.36 (KHTML, like Gecko) Chrome/87.0.4280.141 Safari/537.36 Edg/87.0.664.75" etag="mGHSqq_h5Rk1I7BE9jex" version="14.1.9" type="github">
  <diagram id="sjTg4kTy6N3UMIvyNhCU" name="Page-1">
    <mxGraphModel dx="2062" dy="1162" grid="1" gridSize="10" guides="1" tooltips="1" connect="1" arrows="1" fold="1" page="1" pageScale="1" pageWidth="827" pageHeight="1169" math="0" shadow="0">
      <root>
        <mxCell id="0" />
        <mxCell id="1" parent="0" />
        <mxCell id="EQIiKl6jbdMerrOaPn8H-1" value="" style="rounded=0;whiteSpace=wrap;html=1;gradientDirection=north;fillColor=#FFFFFF;" parent="1" vertex="1">
          <mxGeometry x="199" y="225" width="430" height="550" as="geometry" />
        </mxCell>
        <mxCell id="EQIiKl6jbdMerrOaPn8H-2" value="上位机系统架构" style="text;html=1;strokeColor=none;fillColor=none;align=center;verticalAlign=middle;whiteSpace=wrap;rounded=0;" parent="1" vertex="1">
          <mxGeometry x="349" y="245" width="101" height="20" as="geometry" />
        </mxCell>
        <mxCell id="EQIiKl6jbdMerrOaPn8H-6" value="" style="rounded=0;whiteSpace=wrap;html=1;" parent="1" vertex="1">
          <mxGeometry x="199" y="285" width="430" height="90" as="geometry" />
        </mxCell>
        <mxCell id="EQIiKl6jbdMerrOaPn8H-7" value="展示层" style="shape=display;whiteSpace=wrap;html=1;fillColor=#44494F;strokeColor=#ffffff;fontColor=#FFFFFF;" parent="1" vertex="1">
          <mxGeometry x="234" y="310" width="80" height="40" as="geometry" />
        </mxCell>
        <mxCell id="EQIiKl6jbdMerrOaPn8H-8" value="Web&lt;br&gt;ASP.Net Core MVC&lt;br&gt;Razor&lt;br&gt;WebSocket" style="rounded=0;whiteSpace=wrap;html=1;strokeColor=#ffffff;gradientColor=none;fontColor=#FFFFFF;fillColor=#5050C7;" parent="1" vertex="1">
          <mxGeometry x="349" y="295" width="115" height="70" as="geometry" />
        </mxCell>
        <mxCell id="EQIiKl6jbdMerrOaPn8H-9" value="APP" style="rounded=0;whiteSpace=wrap;html=1;strokeColor=#ffffff;gradientColor=none;fontColor=#FFFFFF;fillColor=#5050C7;" parent="1" vertex="1">
          <mxGeometry x="494" y="295" width="100" height="70" as="geometry" />
        </mxCell>
        <mxCell id="EQIiKl6jbdMerrOaPn8H-13" value="" style="rounded=0;whiteSpace=wrap;html=1;" parent="1" vertex="1">
          <mxGeometry x="199" y="395" width="430" height="100" as="geometry" />
        </mxCell>
        <mxCell id="EQIiKl6jbdMerrOaPn8H-14" value="接口层" style="shape=display;whiteSpace=wrap;html=1;fillColor=#44494F;strokeColor=#ffffff;fontColor=#FFFFFF;" parent="1" vertex="1">
          <mxGeometry x="234" y="425" width="80" height="40" as="geometry" />
        </mxCell>
        <mxCell id="EQIiKl6jbdMerrOaPn8H-22" style="edgeStyle=orthogonalEdgeStyle;rounded=0;orthogonalLoop=1;jettySize=auto;html=1;fontColor=#FFFFFF;strokeWidth=2;" parent="1" source="EQIiKl6jbdMerrOaPn8H-15" target="EQIiKl6jbdMerrOaPn8H-9" edge="1">
          <mxGeometry relative="1" as="geometry" />
        </mxCell>
        <mxCell id="EQIiKl6jbdMerrOaPn8H-15" value="API&lt;br&gt;.Net Core API" style="rounded=0;whiteSpace=wrap;html=1;strokeColor=#ffffff;gradientColor=none;fontColor=#FFFFFF;fillColor=#5050C7;" parent="1" vertex="1">
          <mxGeometry x="494" y="405" width="100" height="80" as="geometry" />
        </mxCell>
        <mxCell id="EQIiKl6jbdMerrOaPn8H-19" value="" style="rounded=0;whiteSpace=wrap;html=1;" parent="1" vertex="1">
          <mxGeometry x="199" y="515" width="430" height="110" as="geometry" />
        </mxCell>
        <mxCell id="EQIiKl6jbdMerrOaPn8H-20" value="服务层" style="shape=display;whiteSpace=wrap;html=1;fillColor=#44494F;strokeColor=#ffffff;fontColor=#FFFFFF;" parent="1" vertex="1">
          <mxGeometry x="234" y="550" width="80" height="40" as="geometry" />
        </mxCell>
        <mxCell id="EQIiKl6jbdMerrOaPn8H-25" style="edgeStyle=orthogonalEdgeStyle;rounded=0;orthogonalLoop=1;jettySize=auto;html=1;entryX=0.5;entryY=1;entryDx=0;entryDy=0;fontColor=#FFFFFF;strokeWidth=2;" parent="1" source="EQIiKl6jbdMerrOaPn8H-23" target="EQIiKl6jbdMerrOaPn8H-8" edge="1">
          <mxGeometry relative="1" as="geometry" />
        </mxCell>
        <mxCell id="EQIiKl6jbdMerrOaPn8H-23" value="控制器&lt;br&gt;ASP.Net Core MVC" style="rounded=0;whiteSpace=wrap;html=1;strokeColor=#ffffff;gradientColor=none;fontColor=#FFFFFF;fillColor=#5050C7;" parent="1" vertex="1">
          <mxGeometry x="349" y="535" width="115" height="70" as="geometry" />
        </mxCell>
        <mxCell id="EQIiKl6jbdMerrOaPn8H-24" value="数据收集&lt;br&gt;TCP/MQTT" style="rounded=0;whiteSpace=wrap;html=1;strokeColor=#ffffff;gradientColor=none;fontColor=#FFFFFF;fillColor=#5050C7;" parent="1" vertex="1">
          <mxGeometry x="486.5" y="535" width="115" height="70" as="geometry" />
        </mxCell>
        <mxCell id="EQIiKl6jbdMerrOaPn8H-26" value="" style="rounded=0;whiteSpace=wrap;html=1;" parent="1" vertex="1">
          <mxGeometry x="199" y="645" width="430" height="110" as="geometry" />
        </mxCell>
        <mxCell id="EQIiKl6jbdMerrOaPn8H-27" value="数据层" style="shape=display;whiteSpace=wrap;html=1;fillColor=#44494F;strokeColor=#ffffff;fontColor=#FFFFFF;" parent="1" vertex="1">
          <mxGeometry x="234" y="680" width="80" height="40" as="geometry" />
        </mxCell>
        <mxCell id="EQIiKl6jbdMerrOaPn8H-31" style="edgeStyle=orthogonalEdgeStyle;rounded=0;orthogonalLoop=1;jettySize=auto;html=1;entryX=0.5;entryY=1;entryDx=0;entryDy=0;fontColor=#FFFFFF;strokeWidth=2;" parent="1" source="EQIiKl6jbdMerrOaPn8H-28" target="EQIiKl6jbdMerrOaPn8H-23" edge="1">
          <mxGeometry relative="1" as="geometry" />
        </mxCell>
        <mxCell id="EQIiKl6jbdMerrOaPn8H-28" value="数据库&lt;br&gt;SQL Server" style="rounded=0;whiteSpace=wrap;html=1;strokeColor=#ffffff;gradientColor=none;fontColor=#FFFFFF;fillColor=#5050C7;" parent="1" vertex="1">
          <mxGeometry x="349" y="665" width="115" height="70" as="geometry" />
        </mxCell>
        <mxCell id="EQIiKl6jbdMerrOaPn8H-32" style="edgeStyle=orthogonalEdgeStyle;rounded=0;orthogonalLoop=1;jettySize=auto;html=1;entryX=1;entryY=0.5;entryDx=0;entryDy=0;fontColor=#FFFFFF;exitX=0.5;exitY=1;exitDx=0;exitDy=0;strokeWidth=2;" parent="1" source="EQIiKl6jbdMerrOaPn8H-24" target="EQIiKl6jbdMerrOaPn8H-28" edge="1">
          <mxGeometry relative="1" as="geometry" />
        </mxCell>
        <mxCell id="EQIiKl6jbdMerrOaPn8H-34" value="" style="rounded=0;whiteSpace=wrap;html=1;gradientDirection=north;fillColor=#FFFFFF;" parent="1" vertex="1">
          <mxGeometry x="199" y="795" width="430" height="150" as="geometry" />
        </mxCell>
        <mxCell id="EQIiKl6jbdMerrOaPn8H-35" value="下位机系统架构" style="text;html=1;strokeColor=none;fillColor=none;align=center;verticalAlign=middle;whiteSpace=wrap;rounded=0;" parent="1" vertex="1">
          <mxGeometry x="362.25" y="805" width="88.5" height="20" as="geometry" />
        </mxCell>
        <mxCell id="EQIiKl6jbdMerrOaPn8H-36" value="" style="rounded=0;whiteSpace=wrap;html=1;" parent="1" vertex="1">
          <mxGeometry x="199" y="835" width="430" height="90" as="geometry" />
        </mxCell>
        <mxCell id="EQIiKl6jbdMerrOaPn8H-37" value="单片机" style="shape=display;whiteSpace=wrap;html=1;fillColor=#44494F;strokeColor=#ffffff;fontColor=#FFFFFF;" parent="1" vertex="1">
          <mxGeometry x="234" y="860" width="80" height="40" as="geometry" />
        </mxCell>
        <mxCell id="EQIiKl6jbdMerrOaPn8H-39" style="edgeStyle=orthogonalEdgeStyle;rounded=0;orthogonalLoop=1;jettySize=auto;html=1;entryX=1;entryY=0.5;entryDx=0;entryDy=0;fontColor=#FFFFFF;strokeWidth=2;" parent="1" source="EQIiKl6jbdMerrOaPn8H-38" target="EQIiKl6jbdMerrOaPn8H-24" edge="1">
          <mxGeometry relative="1" as="geometry">
            <Array as="points">
              <mxPoint x="619" y="880" />
              <mxPoint x="619" y="570" />
            </Array>
          </mxGeometry>
        </mxCell>
        <mxCell id="EQIiKl6jbdMerrOaPn8H-38" value="数据发送" style="rounded=0;whiteSpace=wrap;html=1;strokeColor=#ffffff;gradientColor=none;fontColor=#FFFFFF;fillColor=#5050C7;" parent="1" vertex="1">
          <mxGeometry x="414" y="860" width="90" height="40" as="geometry" />
        </mxCell>
        <mxCell id="WBcQ0SgmhvlrVPBez5iH-1" value="" style="rounded=0;whiteSpace=wrap;html=1;gradientDirection=north;fillColor=#FFFFFF;" vertex="1" parent="1">
          <mxGeometry x="680" y="225" width="430" height="718" as="geometry" />
        </mxCell>
        <mxCell id="WBcQ0SgmhvlrVPBez5iH-2" value="业务流程" style="text;html=1;strokeColor=none;fillColor=none;align=center;verticalAlign=middle;whiteSpace=wrap;rounded=0;" vertex="1" parent="1">
          <mxGeometry x="844.5" y="245" width="101" height="20" as="geometry" />
        </mxCell>
        <mxCell id="WBcQ0SgmhvlrVPBez5iH-5" value="" style="rounded=0;whiteSpace=wrap;html=1;" vertex="1" parent="1">
          <mxGeometry x="680" y="285" width="430" height="545" as="geometry" />
        </mxCell>
        <mxCell id="WBcQ0SgmhvlrVPBez5iH-8" value="用户注册流程" style="text;html=1;strokeColor=none;fillColor=none;align=center;verticalAlign=middle;whiteSpace=wrap;rounded=0;" vertex="1" parent="1">
          <mxGeometry x="853" y="295" width="92.5" height="20" as="geometry" />
        </mxCell>
        <mxCell id="WBcQ0SgmhvlrVPBez5iH-21" style="edgeStyle=orthogonalEdgeStyle;rounded=0;orthogonalLoop=1;jettySize=auto;html=1;exitX=0.5;exitY=1;exitDx=0;exitDy=0;entryX=0.5;entryY=0;entryDx=0;entryDy=0;entryPerimeter=0;strokeWidth=2;" edge="1" parent="1" source="WBcQ0SgmhvlrVPBez5iH-10" target="WBcQ0SgmhvlrVPBez5iH-11">
          <mxGeometry relative="1" as="geometry" />
        </mxCell>
        <mxCell id="WBcQ0SgmhvlrVPBez5iH-10" value="用户名、注册邮箱、密码、邮箱验证码" style="html=1;strokeWidth=2;shape=manualInput;whiteSpace=wrap;rounded=1;size=26;arcSize=11;verticalAlign=bottom;" vertex="1" parent="1">
          <mxGeometry x="830.42" y="465" width="127.25" height="60" as="geometry" />
        </mxCell>
        <mxCell id="WBcQ0SgmhvlrVPBez5iH-18" style="edgeStyle=orthogonalEdgeStyle;rounded=0;orthogonalLoop=1;jettySize=auto;html=1;exitX=1;exitY=0.5;exitDx=0;exitDy=0;exitPerimeter=0;entryX=1;entryY=0.5;entryDx=0;entryDy=0;strokeWidth=2;" edge="1" parent="1" source="WBcQ0SgmhvlrVPBez5iH-11" target="WBcQ0SgmhvlrVPBez5iH-13">
          <mxGeometry relative="1" as="geometry" />
        </mxCell>
        <mxCell id="WBcQ0SgmhvlrVPBez5iH-22" style="edgeStyle=orthogonalEdgeStyle;rounded=0;orthogonalLoop=1;jettySize=auto;html=1;exitX=0.5;exitY=1;exitDx=0;exitDy=0;exitPerimeter=0;entryX=0.5;entryY=0;entryDx=0;entryDy=0;entryPerimeter=0;strokeWidth=2;" edge="1" parent="1" source="WBcQ0SgmhvlrVPBez5iH-11" target="WBcQ0SgmhvlrVPBez5iH-12">
          <mxGeometry relative="1" as="geometry" />
        </mxCell>
        <mxCell id="WBcQ0SgmhvlrVPBez5iH-11" value="验证通过？" style="strokeWidth=2;html=1;shape=mxgraph.flowchart.decision;whiteSpace=wrap;" vertex="1" parent="1">
          <mxGeometry x="823.99" y="542.5" width="141.25" height="55" as="geometry" />
        </mxCell>
        <mxCell id="WBcQ0SgmhvlrVPBez5iH-23" style="edgeStyle=orthogonalEdgeStyle;rounded=0;orthogonalLoop=1;jettySize=auto;html=1;exitX=0.5;exitY=1;exitDx=0;exitDy=0;exitPerimeter=0;entryX=0.5;entryY=0;entryDx=0;entryDy=0;strokeWidth=2;" edge="1" parent="1" source="WBcQ0SgmhvlrVPBez5iH-12" target="WBcQ0SgmhvlrVPBez5iH-15">
          <mxGeometry relative="1" as="geometry" />
        </mxCell>
        <mxCell id="WBcQ0SgmhvlrVPBez5iH-12" value="保存用户数据" style="strokeWidth=2;html=1;shape=mxgraph.flowchart.direct_data;whiteSpace=wrap;align=center;" vertex="1" parent="1">
          <mxGeometry x="831.61" y="630" width="120" height="50" as="geometry" />
        </mxCell>
        <mxCell id="WBcQ0SgmhvlrVPBez5iH-20" style="edgeStyle=orthogonalEdgeStyle;rounded=0;orthogonalLoop=1;jettySize=auto;html=1;exitX=0.5;exitY=1;exitDx=0;exitDy=0;strokeWidth=2;" edge="1" parent="1" source="WBcQ0SgmhvlrVPBez5iH-13" target="WBcQ0SgmhvlrVPBez5iH-10">
          <mxGeometry relative="1" as="geometry" />
        </mxCell>
        <mxCell id="WBcQ0SgmhvlrVPBez5iH-13" value="注册页面" style="rounded=1;whiteSpace=wrap;html=1;absoluteArcSize=1;arcSize=14;strokeWidth=2;align=center;" vertex="1" parent="1">
          <mxGeometry x="829.62" y="405" width="130" height="35" as="geometry" />
        </mxCell>
        <mxCell id="WBcQ0SgmhvlrVPBez5iH-19" style="edgeStyle=orthogonalEdgeStyle;rounded=0;orthogonalLoop=1;jettySize=auto;html=1;exitX=0.5;exitY=1;exitDx=0;exitDy=0;entryX=0.5;entryY=0;entryDx=0;entryDy=0;strokeWidth=2;" edge="1" parent="1" source="WBcQ0SgmhvlrVPBez5iH-14" target="WBcQ0SgmhvlrVPBez5iH-13">
          <mxGeometry relative="1" as="geometry" />
        </mxCell>
        <mxCell id="WBcQ0SgmhvlrVPBez5iH-14" value="开始" style="rounded=1;whiteSpace=wrap;html=1;absoluteArcSize=1;arcSize=14;strokeWidth=2;align=center;" vertex="1" parent="1">
          <mxGeometry x="830.68" y="340" width="130" height="40" as="geometry" />
        </mxCell>
        <mxCell id="WBcQ0SgmhvlrVPBez5iH-15" value="登录流程" style="verticalLabelPosition=bottom;verticalAlign=top;html=1;shape=process;whiteSpace=wrap;rounded=1;size=0.22380000000000108;arcSize=6;align=center;" vertex="1" parent="1">
          <mxGeometry x="841.49" y="709" width="100" height="60" as="geometry" />
        </mxCell>
      </root>
    </mxGraphModel>
  </diagram>
</mxfile>
